<svg xmlns="http://www.w3.org/2000/svg" xmlns:xlink="http://www.w3.org/1999/xlink" width="500" zoomAndPan="magnify" viewBox="0 0 375 374.999991" height="500" preserveAspectRatio="xMidYMid meet" version="1.0"><defs><clipPath id="23cc070a99"><path d="M 11.707031 2.699219 L 363.292969 2.699219 L 363.292969 373 L 11.707031 373 Z M 11.707031 2.699219 " clip-rule="nonzero"/></clipPath><clipPath id="6ab84bf6ad"><path d="M 187.5 2.699219 C 90.414062 2.699219 11.707031 85.4375 11.707031 187.5 C 11.707031 289.5625 90.414062 372.300781 187.5 372.300781 C 284.585938 372.300781 363.292969 289.5625 363.292969 187.5 C 363.292969 85.4375 284.585938 2.699219 187.5 2.699219 Z M 187.5 2.699219 " clip-rule="nonzero"/></clipPath><clipPath id="0ae2c06219"><path d="M 11.707031 2.699219 L 363.457031 2.699219 L 363.457031 372.449219 L 11.707031 372.449219 Z M 11.707031 2.699219 " clip-rule="nonzero"/></clipPath></defs><g clip-path="url(#23cc070a99)"><g clip-path="url(#6ab84bf6ad)"><path fill="#ffffff" d="M 11.707031 2.699219 L 363.292969 2.699219 L 363.292969 372.136719 L 11.707031 372.136719 Z M 11.707031 2.699219 " fill-opacity="1" fill-rule="nonzero"/></g></g><path fill="#000000" d="M 187.59375 94.210938 C 148.734375 94.210938 117.238281 127.292969 117.238281 168.101562 C 117.238281 208.914062 148.734375 241.996094 187.59375 241.996094 C 226.449219 241.996094 257.945312 208.914062 257.945312 168.101562 C 257.945312 127.292969 226.449219 94.210938 187.59375 94.210938 " fill-opacity="1" fill-rule="nonzero"/><g clip-path="url(#0ae2c06219)"><path fill="#000000" d="M 304.4375 315.101562 C 288.855469 277.066406 256.144531 253.28125 187.484375 253.28125 C 118.917969 253.28125 86.207031 277.007812 70.597656 314.953125 C 38.839844 282.761719 19.082031 237.589844 19.082031 187.574219 C 19.082031 89.824219 94.527344 10.585938 187.59375 10.585938 C 280.660156 10.585938 356.105469 89.824219 356.105469 187.574219 C 356.105469 237.671875 336.285156 282.902344 304.4375 315.101562 Z M 187.59375 2.84375 C 90.453125 2.84375 11.707031 85.550781 11.707031 187.574219 C 11.707031 240.933594 33.25 289.011719 67.699219 322.738281 C 99.113281 353.488281 141.257812 372.304688 187.59375 372.304688 C 233.84375 372.304688 275.925781 353.550781 307.328125 322.890625 C 341.867188 289.160156 363.476562 241.015625 363.476562 187.574219 C 363.476562 85.550781 284.726562 2.84375 187.59375 2.84375 " fill-opacity="1" fill-rule="nonzero"/></g></svg>